<?xml version="1.0" encoding="iso-8859-1"?>
<!-- Generator: Adobe Illustrator 19.1.0, SVG Export Plug-In . SVG Version: 6.00 Build 0)  -->
<svg version="1.1" id="&#x421;&#x43B;&#x43E;&#x439;_1"
	 xmlns="http://www.w3.org/2000/svg" xmlns:xlink="http://www.w3.org/1999/xlink" x="0px" y="0px" viewBox="0 0 344.211 383.754"
	 style="enable-background:new 0 0 344.211 383.754;" xml:space="preserve">
<g>
	<path d="M225.818,200.817l38.053-8.685l-0.444-1.95L225.23,198.9l-43.093-34.365l-1.187-0.947v-55.118v-1.519L209.353,84.3
		l-1.247-1.563l-28.246,22.526l-1.142-0.659v0l-46.419-26.8l-1.732-1l-0.5-0.288l-0.5,0.288l-49.883,28.8l-0.5,0.288v0.579v2
		l0,55.023l-27.711,15.999l0.999,1.733l27.712-15.999l49.383,28.511l0.5,0.288l0.5-0.288l49.293-28.459l1.03,0.822l42.979,34.274
		l-0.305,1.338l-12.244,53.643l-52.578,16.218v0l-1.911,0.59l-0.552,0.169l-0.129,0.564l-0.445,1.95l-12.372,54.206l-0.128,0.562
		l0.422,0.392l40.758,37.818l0,0l1.466,1.36l0.422,0.393l0.553-0.171l1.911-0.589v0l51.219-15.799v0l1.911-0.59l0.552-0.169
		l0.129-0.564l0.445-1.95h0l12.372-54.206l0.128-0.562l-0.423-0.392l-1.466-1.36l0,0l-39.291-36.457l-1.043-0.968l0.317-1.388
		L225.818,200.817z M178.949,108.469v55.023l-48.883,28.223l-1.232-0.712v0l-47.651-27.511v-1.423v-53.6v-1.423l1.232-0.711
		l47.651-27.511l47.651,27.512l1.232,0.711V108.469z M253.286,295.656l-0.317,1.387h0l-12.244,53.643l-52.578,16.218v0l-1.36,0.419
		l-1.042-0.967l0,0l-40.335-37.425l0.317-1.387h0l11.927-52.256h0l0.316-1.387l1.359-0.419l52.578-16.218l1.042,0.967l0,0
		L253.286,295.656z"/>
	<rect x="228.089" y="183.796" transform="matrix(-0.9749 0.2225 -0.2225 -0.9749 524.8329 310.458)" width="33.675" height="2"/>
	<rect x="127.01" y="100.048" transform="matrix(-0.866 -0.5 0.5 -0.866 229.0508 263.4704)" width="45.628" height="2"/>
	<rect x="203.411" y="282.327" transform="matrix(-0.733 -0.6802 0.6802 -0.733 199.3471 644.8931)" width="45.628" height="2"/>
	<rect x="148.824" y="146.676" transform="matrix(-0.4996 -0.8663 0.8663 -0.4996 77.8468 383.9511)" width="2" height="45.628"/>
	<rect x="159.824" y="280.687" transform="matrix(-0.975 -0.2221 0.2221 -0.975 250.2222 635.1411)" width="2" height="45.628"/>
	<rect x="89.551" y="112.455" width="2" height="45.628"/>
	<rect x="209.996" y="327.239" transform="matrix(-0.2947 -0.9556 0.9556 -0.2947 -61.336 654.8354)" width="2" height="45.628"/>
	<polygon points="308.13,56.238 283.845,86.69 282.907,84.741 282.907,84.741 282.039,82.939 281.831,82.505 281.361,82.398 
		279.411,81.953 279.411,81.953 277.303,81.472 301.587,51.021 300.024,49.774 275.139,80.978 242.694,73.573 242.25,75.523 
		278.967,83.903 278.967,83.903 280.447,84.241 304.362,133.902 304.362,133.902 305.021,135.269 304.362,136.637 304.362,136.637 
		290.027,166.404 291.828,167.273 307.031,135.704 307.241,135.269 307.031,134.835 284.809,88.69 309.693,57.485 	"/>
	<rect x="198.068" y="31.078" transform="matrix(0.2225 0.9749 -0.9749 0.2225 199.366 -185.8396)" width="36.265" height="2"/>
	<polygon points="288.912,194.733 288.736,194.733 273.306,172.604 269.889,172.604 269.889,200.788 273.365,200.788 
		273.365,178.737 273.541,178.737 288.971,200.788 292.389,200.788 292.389,172.604 288.912,172.604 	"/>
	<polygon points="213.733,55.996 213.733,84.179 217.209,84.179 217.209,62.129 217.385,62.129 232.815,84.179 236.233,84.179 
		236.233,55.996 232.756,55.996 232.756,78.125 232.58,78.125 217.151,55.996 	"/>
	<path d="M26.866,181.697c4.024,0,7.246,2.422,8.145,6.113h3.555c-0.898-5.625-5.566-9.356-11.699-9.356
		c-7.715,0-12.695,5.703-12.695,14.551c0,8.926,4.922,14.57,12.695,14.57c6.231,0,10.41-3.105,11.699-8.672h-3.555
		c-1.016,3.438-3.984,5.43-8.125,5.43c-5.566,0-9.102-4.414-9.102-11.328C17.784,186.15,21.359,181.697,26.866,181.697z"/>
	<rect x="43.031" y="177.693" width="3.398" height="29.414"/>
	<path d="M317.052,23.545c-7.988,0-12.988,5.625-12.988,14.57c0,8.945,5,14.551,12.988,14.551c7.988,0,12.988-5.605,12.988-14.551
		C330.04,29.17,325.04,23.545,317.052,23.545z M317.052,49.424c-5.762,0-9.375-4.375-9.375-11.309
		c0-6.953,3.613-11.328,9.375-11.328c5.762,0,9.375,4.375,9.375,11.328C326.427,45.049,322.813,49.424,317.052,49.424z"/>
</g>
</svg>
