<?xml version="1.0" encoding="utf-8"?>
<!-- Generator: Adobe Illustrator 19.2.1, SVG Export Plug-In . SVG Version: 6.00 Build 0)  -->
<svg version="1.1" id="Слой_1" xmlns="http://www.w3.org/2000/svg" xmlns:xlink="http://www.w3.org/1999/xlink" x="0px" y="0px"
	 viewBox="0 0 429.8 317.5" style="enable-background:new 0 0 429.8 317.5;" xml:space="preserve">
<g>
	<rect x="24.5" y="208.3" width="2.4" height="45.6"/>
	<rect x="62.2" y="264.1" transform="matrix(0.8661 -0.4998 0.4998 0.8661 -121.2213 78.004)" width="45.6" height="2.4"/>
	<rect x="83.8" y="174" transform="matrix(0.4997 -0.8662 0.8662 0.4997 -127.9899 172.1189)" width="2.4" height="45.6"/>
	<rect x="183.6" y="174" transform="matrix(0.4997 -0.8662 0.8662 0.4997 -78.0818 258.5299)" width="2.4" height="45.6"/>
	<rect x="323.8" y="208.3" width="2.4" height="45.6"/>
	<rect x="361.5" y="264.1" transform="matrix(0.8661 -0.4998 0.4998 0.8661 -81.1571 227.5891)" width="45.6" height="2.4"/>
	<rect x="383.1" y="174" transform="matrix(0.4997 -0.8662 0.8662 0.4997 21.7329 431.3495)" width="2.4" height="45.6"/>
	<path d="M165,273.4c-9.1,0-13.7,7.2-13.7,15s4.6,15,13.7,15c9.1,0,13.7-7.2,13.7-15S174.1,273.4,165,273.4z M165,300.1
		c-7,0-9.9-6-9.9-11.8s2.9-11.8,9.9-11.8c7,0,9.9,6,9.9,11.8S172,300.1,165,300.1z"/>
	<path d="M165,130.5c9.1,0,13.7-7.2,13.7-15s-4.6-15-13.7-15c-9.1,0-13.7,7.2-13.7,15S155.9,130.5,165,130.5z M165,103.8
		c7,0,9.9,6,9.9,11.8s-2.9,11.8-9.9,11.8c-7,0-9.9-6-9.9-11.8S158,103.8,165,103.8z"/>
	<polygon points="186.5,116.7 201.5,116.7 201.5,129.8 205.3,129.8 205.3,101.3 201.5,101.3 201.5,113.5 186.5,113.5 186.5,101.3 
		182.7,101.3 182.7,129.8 186.5,129.8 	"/>
	<path d="M264.8,273.4c-9.1,0-13.7,7.2-13.7,15s4.6,15,13.7,15c9.1,0,13.7-7.2,13.7-15S273.8,273.4,264.8,273.4z M264.8,300.1
		c-7,0-9.9-6-9.9-11.8s2.9-11.8,9.9-11.8c7,0,9.9,6,9.9,11.8S271.7,300.1,264.8,300.1z"/>
	<path d="M415,201.2l-48.1-27.8l0,0l-2.4-1.3l-0.6,0.4l-49.3,28.4l-1.1-0.7l0,0L266,172.8v-54.9v-1.3l1.2-0.7l0,0l46.4-26.8l0,0
		l1.1-0.7l49.3,28.5l1.2-2.1L321,89.4V48.7h-2.4V88l-1.7-1l0,0l-2.4-1.3l-0.7,0.4l-3.3,1.9V48.7h-2.4v40.6l-44.1,25.4l-0.7,0.4v0.7
		v2v54.9l-48.7,28.1l-1.1-0.7l0,0l-47.6-27.5v-37.7h-2.4v37.7l-47.6,27.5l0,0l-1.1,0.6l-1.1-0.6l0,0l-48.2-27.8l0,0l-0.6-0.3
		l-0.6,0.3l0,0l-48.2,27.8l0,0l-2.3,1.3v0.7v2v53.6v2v0.7l2.3,1.3l0,0l48.2,27.8l0,0l0.6,0.3l0.6-0.3l0,0l48.2-27.8l0,0l1.1-0.6
		l1.1,0.6l0,0l30.9,17.8l1.2-2.1l-32-18.5V203l47.6-27.5l0,0l1.1-0.6l1.1,0.6l0,0l47.6,27.5v1.3v53.6v1.3l-30.1,17.4l1.2,2.1
		l24.9-14.4l34.6,20l1.2-2.1l-33.4-19.3l1.7-1l0,0l1.7-1l0.1,0l0,0l0.6-0.3v-0.7v-2V256l33.4,19.3l1.2-2.1l-34.6-20v-48.9V203
		l48.7-28.1l48.7,28.1v1.3v53.6v2v0.7l0.6,0.4l49.8,28.8l0.6,0.4l2.4-1.3l0,0l48.1-27.8l0.6-0.4v-0.7v-2v-53.6v-2v-0.7L415,201.2z
		 M113.9,259.2l-47.6,27.5l0,0l-1.1,0.6l-1.1-0.6l0,0l-47.6-27.5v-1.3v-53.6V203l47.6-27.5l0,0l1.1-0.6l1.1,0.6l0,0l47.6,27.5V259.2
		z M413.2,204.3v53.6v1.3l-1.2,0.7l0,0l-47.6,27.4l-1.1-0.7l0,0L317,259.8l0,0l-1.2-0.7v-1.3v-53.6V203l47.6-27.5l0,0l1.1-0.7
		l47.6,27.4l0,0l1.2,0.7V204.3z"/>
	<path d="M314.6,44.1c9.1,0,13.7-7.2,13.7-15s-4.6-15-13.7-15c-9.1,0-13.7,7.2-13.7,15S305.6,44.1,314.6,44.1z M314.6,17.4
		c7,0,9.9,6,9.9,11.8s-2.9,11.8-9.9,11.8c-7,0-9.9-6-9.9-11.8S307.7,17.4,314.6,17.4z"/>
</g>
</svg>
